<?xml version="1.0" encoding="utf-8"?>
<!-- Generator: Adobe Illustrator 24.0.0, SVG Export Plug-In . SVG Version: 6.00 Build 0)  -->
<svg version="1.1" id="Layer_1" xmlns="http://www.w3.org/2000/svg" xmlns:xlink="http://www.w3.org/1999/xlink" x="0px" y="0px"
	 viewBox="0 0 105 25" style="enable-background:new 0 0 105 25;" xml:space="preserve">
<style type="text/css">
	.st0{fill:#FFFFFF;}
</style>
<path class="st0" d="M8.8,4.6c-2,0-3.4,0.9-4.3,2.3v-2H1.9v18.2h2.7v-6.4C5.4,18.1,6.8,19,8.8,19c3.2,0,5.9-2.7,5.9-7.2
	C14.7,7.3,12,4.6,8.8,4.6 M8.2,16.7c-2,0-3.8-1.6-3.8-4.9s1.7-4.9,3.8-4.9c2.2,0,3.7,1.8,3.7,4.9C11.9,14.9,10.4,16.7,8.2,16.7
	 M17.2,4.9h2.7v13.7h-2.7V4.9z M41.7,4.6c-3.9,0-6.8,2.8-6.8,7.1c0,4,2.4,7.2,6.8,7.2c3.5,0,5.5-2.1,6.2-4.4h-2.7
	c-0.6,1.3-1.7,2.1-3.6,2.1c-2.1,0-3.7-1.6-4-4.1h10.5C48.4,8.1,45.9,4.6,41.7,4.6 M37.7,10.5c0.4-2.6,1.9-3.7,4-3.7
	c2.2,0,3.6,1.6,3.7,3.7H37.7z M50.5,0.1h2.7v18.5h-2.7V0.1z M63.3,4.6c-2,0-3.4,0.9-4.3,2.3v-2h-2.7v18.2H59v-6.4
	c0.8,1.4,2.3,2.3,4.3,2.3c3.2,0,5.9-2.7,5.9-7.2C69.2,7.3,66.5,4.6,63.3,4.6 M62.7,16.7c-2,0-3.8-1.6-3.8-4.9s1.7-4.9,3.8-4.9
	c2.2,0,3.7,1.8,3.7,4.9C66.4,14.9,64.9,16.7,62.7,16.7 M71.7,0.1h2.7v18.5h-2.7V0.1z M83.5,4.6c-3.9,0-6.8,2.8-6.8,7.1
	c0,4,2.4,7.2,6.8,7.2c3.5,0,5.5-2.1,6.2-4.4h-2.7c-0.6,1.3-1.7,2.1-3.6,2.1c-2.1,0-3.7-1.6-4-4.1h10.5C90.2,8.1,87.7,4.6,83.5,4.6
	 M79.5,10.5c0.4-2.6,1.9-3.7,4-3.7c2.2,0,3.6,1.6,3.7,3.7H79.5z M25.1,4.9l9.7,13.7h-3.2l-3.5-4.9l-3.5,4.9h-3l5-7l-4.7-6.7H25.1z
	 M34.3,7.8h-2.9V4.9h2.9V7.8z M103.1,18.6H100l-3.5-4.9L93,18.6h-3l5-7l-4.7-6.7h3.1L103.1,18.6z M102.7,7.8h-2.9V4.9h2.9V7.8z"/>
</svg>
