<?xml version="1.0" encoding="utf-8"?>
<!-- Generator: Adobe Illustrator 24.0.0, SVG Export Plug-In . SVG Version: 6.00 Build 0)  -->
<svg version="1.1" id="Layer_1" xmlns="http://www.w3.org/2000/svg" xmlns:xlink="http://www.w3.org/1999/xlink" x="0px" y="0px"
	 viewBox="0 0 453 115" style="enable-background:new 0 0 453 115;" xml:space="preserve">
<style type="text/css">
	.st0{fill:#FFFFFF;}
</style>
<g>
	<path class="st0" d="M39.7,30c-1.8,9.5-8.4,14.8-18.2,14.8c-12.4,0-19.5-8.7-19.5-22C1.9,9.5,9.5,1,21.8,1
		c9.4,0,16.1,5.3,17.8,14.8h-7.1c-1.3-5.8-5.4-8.7-10.9-8.7c-6.7,0-12,5.5-12,15.7c0,10.3,5.2,16,11.9,16c5.8,0,9.7-2.9,11.1-8.7
		H39.7z"/>
	<path class="st0" d="M52.5,44h-6.9V1.8h6.9V44z"/>
	<path class="st0" d="M67.2,1.8v7h-6.9v-7H67.2z M67.2,12.7V44h-6.9V12.7H67.2z"/>
	<path class="st0" d="M80,30.3c0.5,5.8,4.5,8.7,8.5,8.7c3.7,0,6.5-1.4,7.7-4.4h6.8c-1.4,5-6.2,10.1-14.2,10.1
		c-10.1,0-15.9-7.6-15.9-16.7c0-9.4,6.5-16.1,15.4-16.1c9.6,0,15.7,7.9,15,18.4H80z M80,25.3h16.3c-0.2-4.9-3.9-7.9-8-7.9
		C85.1,17.4,80.6,19.4,80,25.3z"/>
	<path class="st0" d="M116,17c1.8-3.3,5.1-5.1,9.5-5.1c7.6,0,10.7,4.9,10.7,12.4V44h-6.9V26c0-4.3-0.6-8.4-5.9-8.4
		c-5.4,0-7.3,4.1-7.3,9.7V44h-6.9V12.7h6.9V17z"/>
	<path class="st0" d="M144.4,4.4h6.9v8.3h6.3v5h-6.3v17.1c0,3.2,0.8,4,3.7,4h2.5V44h-5.1c-6.7,0-8-1.8-8-8.2V17.7h-4.7v-5h4.7V4.4z"
		/>
	<path class="st0" d="M181.1,21.2c-0.8-2.9-3.4-4-6.9-4c-3,0-5.8,1.3-5.8,3.4c0,2.1,1.5,3.2,4.2,3.7l4.4,0.9
		c6.4,1.2,11.2,3.2,11.2,9.3c0,6.5-6.2,10.1-13.3,10.1c-7.7,0-12.8-4.4-13.6-10.3h6.8c0.6,3.3,2.9,5.1,7.1,5.1
		c3.7,0,6.3-1.5,6.3-4.1c0-2.6-2.3-3.7-5.4-4.3l-4.7-0.9c-5.3-1.1-9.4-3.4-9.4-9.1c0-5.5,6-9.1,12.8-9.1c6.1,0,11.7,3,13,9.3H181.1z
		"/>
	<path class="st0" d="M207.6,1.8h29.5V8H215v11.3h20.8v6.1H215V44h-7.4V1.8z"/>
	<path class="st0" d="M269.8,28.4c0,11.4-7.8,16.4-15.4,16.4c-7.6,0-15.4-5-15.4-16.4c0-11.3,7.8-16.4,15.4-16.4
		C262,12,269.8,17.1,269.8,28.4z M254.4,39.1c4.4,0,8.3-3.5,8.3-10.7c0-7.2-3.8-10.8-8.3-10.8c-4.4,0-8.3,3.6-8.3,10.8
		C246.1,35.6,250,39.1,254.4,39.1z"/>
	<path class="st0" d="M303.2,23.4h-6.8c-0.6-3.3-3.5-5.7-7.3-5.7c-4.4,0-8.2,3.2-8.2,10.6c0,7.5,4,10.7,8,10.7
		c3.4,0,6.8-1.5,7.7-5.7h6.8c-1.4,7.3-7.9,11.5-14.6,11.5c-9.1,0-15.1-7.1-15.1-16.4c0-9.3,6-16.4,15.4-16.4
		C296,12,301.9,16.5,303.2,23.4z"/>
	<path class="st0" d="M328.1,39.7c-1.8,3.3-5,5.1-9.3,5.1c-7.5,0-10.5-4.9-10.5-12.4V12.7h6.9v18.1c0,4.3,0.6,8.4,5.8,8.4
		s7.1-4.1,7.1-9.7V12.7h6.9V44h-6.9V39.7z"/>
	<path class="st0" d="M360.7,21.2c-0.8-2.9-3.4-4-6.9-4c-3,0-5.8,1.3-5.8,3.4c0,2.1,1.5,3.2,4.2,3.7l4.4,0.9
		c6.4,1.2,11.2,3.2,11.2,9.3c0,6.5-6.2,10.1-13.3,10.1c-7.7,0-12.8-4.4-13.6-10.3h6.8c0.6,3.3,2.9,5.1,7.1,5.1
		c3.7,0,6.3-1.5,6.3-4.1c0-2.6-2.3-3.7-5.4-4.3l-4.7-0.9c-5.3-1.1-9.4-3.4-9.4-9.1c0-5.5,6-9.1,12.8-9.1c6.1,0,11.7,3,13,9.3H360.7z
		"/>
	<path class="st0" d="M378.7,30.3c0.5,5.8,4.5,8.7,8.5,8.7c3.7,0,6.5-1.4,7.7-4.4h6.8c-1.4,5-6.2,10.1-14.2,10.1
		c-10.1,0-15.9-7.6-15.9-16.7c0-9.4,6.5-16.1,15.4-16.1c9.6,0,15.7,7.9,15,18.4H378.7z M378.7,25.3h16.3c-0.2-4.9-3.9-7.9-8-7.9
		C383.8,17.4,379.4,19.4,378.7,25.3z"/>
	<path class="st0" d="M429,1.8h6.9V44H429v-4.1c-1.9,3.1-5.1,4.9-9.3,4.9c-7.5,0-13.6-6.4-13.6-16.4c0-10,6.2-16.4,13.6-16.4
		c4.2,0,7.5,1.8,9.3,4.9V1.8z M421.2,17.6c-4.7,0-7.9,4.2-7.9,10.7c0,6.7,3.3,10.8,7.9,10.8c4.5,0,8.1-3.6,8.1-10.8
		S425.6,17.6,421.2,17.6z"/>
	<path class="st0" d="M442.8,44v-7.9h7.9V44H442.8z"/>
</g>
<g>
	<path class="st0" d="M20.4,96.1c-0.7,0.1-1.5,0.1-2.2,0.1H11V114H3.6V71.7h13.5c12.4,0,18.8,2.8,18.8,12.2c0,5.4-2.6,9.1-7.9,10.9
		l9.7,19.2h-8.3L20.4,96.1z M11,77.6v12.6h7.3c6.4,0,10-1.3,10-6.4c0-5.5-4.4-6.3-10.2-6.3H11z"/>
	<path class="st0" d="M47.2,100.3c0.5,5.8,4.5,8.7,8.5,8.7c3.7,0,6.5-1.4,7.7-4.4h6.8c-1.4,5-6.2,10.1-14.2,10.1
		c-10.1,0-15.9-7.6-15.9-16.7c0-9.4,6.5-16.1,15.4-16.1c9.6,0,15.7,7.9,15,18.4H47.2z M47.2,95.2h16.3c-0.2-4.9-3.9-7.9-8-7.9
		C52.3,87.3,47.9,89.3,47.2,95.2z"/>
	<path class="st0" d="M94.3,91.2c-0.8-2.9-3.4-4-6.9-4c-3,0-5.8,1.3-5.8,3.4s1.5,3.2,4.2,3.7l4.4,0.9c6.4,1.2,11.2,3.2,11.2,9.3
		c0,6.5-6.2,10.1-13.3,10.1c-7.7,0-12.8-4.4-13.6-10.3h6.8c0.6,3.3,2.9,5.1,7.1,5.1c3.7,0,6.3-1.5,6.3-4.1c0-2.6-2.3-3.7-5.4-4.3
		l-4.7-0.9C79.2,99,75,96.8,75,91c0-5.5,6-9.1,12.8-9.1c6.1,0,11.7,3,13,9.3H94.3z"/>
	<path class="st0" d="M126.4,109.6c-1.8,3.3-5,5.1-9.3,5.1c-7.5,0-10.5-4.9-10.5-12.4V82.6h6.9v18.1c0,4.3,0.6,8.4,5.8,8.4
		s7.1-4.1,7.1-9.7V82.6h6.9V114h-6.9V109.6z"/>
	<path class="st0" d="M148,114h-6.9V71.7h6.9V114z"/>
	<path class="st0" d="M156.8,74.3h6.9v8.3h6.3v5h-6.3v17.1c0,3.2,0.8,4,3.7,4h2.5v5.3h-5.1c-6.7,0-8-1.8-8-8.2V87.6h-4.7v-5h4.7
		V74.3z"/>
	<path class="st0" d="M193.6,91.2c-0.8-2.9-3.4-4-6.9-4c-3,0-5.8,1.3-5.8,3.4s1.5,3.2,4.2,3.7l4.4,0.9c6.4,1.2,11.2,3.2,11.2,9.3
		c0,6.5-6.2,10.1-13.3,10.1c-7.7,0-12.8-4.4-13.6-10.3h6.8c0.6,3.3,2.9,5.1,7.1,5.1c3.7,0,6.3-1.5,6.3-4.1c0-2.6-2.3-3.7-5.4-4.3
		l-4.7-0.9c-5.3-1.1-9.4-3.4-9.4-9.1c0-5.5,6-9.1,12.8-9.1c6.1,0,11.7,3,13,9.3H193.6z"/>
	<path class="st0" d="M231.6,71.7c13.3,0,23.6,4.6,23.6,21.1S245,114,231.6,114h-11.5V71.7H231.6z M231.3,77.6h-3.8V108h3.8
		c8.1,0,16.3-1.9,16.3-15.2S239.4,77.6,231.3,77.6z"/>
	<path class="st0" d="M278.7,89.7c-1.2-0.1-2.3-0.2-3.3-0.2c-4.4,0-6.9,1.7-6.9,8V114h-6.9V82.6h6.8v5.6c1.7-3.5,4.7-5.6,8.5-5.7
		c0.5,0,1.3,0.1,1.8,0.1V89.7z"/>
	<path class="st0" d="M290.1,71.7v7h-6.9v-7H290.1z M290.1,82.6V114h-6.9V82.6H290.1z"/>
	<path class="st0" d="M308.8,105l7.2-22.4h7.2L311.9,114h-6.5L294,82.6h7.6L308.8,105z"/>
	<path class="st0" d="M331.5,100.3c0.5,5.8,4.5,8.7,8.5,8.7c3.7,0,6.5-1.4,7.7-4.4h6.8c-1.4,5-6.2,10.1-14.2,10.1
		c-10.1,0-15.9-7.6-15.9-16.7c0-9.4,6.5-16.1,15.4-16.1c9.6,0,15.7,7.9,15,18.4H331.5z M331.5,95.2h16.3c-0.2-4.9-3.9-7.9-8-7.9
		C336.6,87.3,332.2,89.3,331.5,95.2z"/>
	<path class="st0" d="M367.5,87c1.8-3.3,5.1-5.1,9.5-5.1c7.6,0,10.7,4.9,10.7,12.4V114h-6.9v-18c0-4.3-0.6-8.4-5.9-8.4
		s-7.3,4.1-7.3,9.7V114h-6.9V82.6h6.9V87z"/>
	<path class="st0" d="M394.5,114V106h7.9v7.9H394.5z"/>
</g>
</svg>
